<svg xmlns="http://www.w3.org/2000/svg" xmlns:xlink="http://www.w3.org/1999/xlink" contentStyleType="text/css" height="502px" preserveAspectRatio="none" style="width:457px;height:502px;background:#FFFFFF;" version="1.1" viewBox="0 0 457 502" width="457px" zoomAndPan="magnify"><title>System Sequence Diagram (SSD)</title><defs/><g><text fill="#000000" font-family="sans-serif" font-size="14" font-weight="bold" lengthAdjust="spacing" textLength="231.8613" x="111.8997" y="28.5352">System Sequence Diagram (SSD)</text><rect fill="#FFFFFF" height="250.7949" style="stroke:#181818;stroke-width:1.0;" width="10" x="47.0645" y="145.4648"/><rect fill="#FFFFFF" height="29.3105" style="stroke:#181818;stroke-width:1.0;" width="10" x="413.397" y="166.7754"/><rect fill="#FFFFFF" height="44.6211" style="stroke:#181818;stroke-width:1.0;" width="10" x="413.397" y="225.3965"/><rect fill="#FFFFFF" height="29.3105" style="stroke:#181818;stroke-width:1.0;" width="10" x="413.397" y="299.3281"/><rect fill="#FFFFFF" height="29.3105" style="stroke:#181818;stroke-width:1.0;" width="10" x="413.397" y="357.9492"/><line style="stroke:#181818;stroke-width:0.5;stroke-dasharray:5.0,5.0;" x1="52" x2="52" y1="135.4648" y2="405.2598"/><line style="stroke:#181818;stroke-width:0.5;stroke-dasharray:5.0,5.0;" x1="418.1333" x2="418.1333" y1="135.4648" y2="405.2598"/><text fill="#000000" font-family="sans-serif" font-size="14" lengthAdjust="spacing" textLength="88.1289" x="5" y="116.0234">Organization</text><text fill="#000000" font-family="sans-serif" font-size="14" lengthAdjust="spacing" textLength="65.0303" x="16.5493" y="132.5117">Employee</text><ellipse cx="52.0645" cy="50.9883" fill="#E3E3E3" rx="8" ry="8" style="stroke:#181818;stroke-width:0.5;"/><path d="M52.0645,58.9883 L52.0645,85.9883 M39.0645,66.9883 L65.0645,66.9883 M52.0645,85.9883 L39.0645,100.9883 M52.0645,85.9883 L65.0645,100.9883 " fill="none" style="stroke:#181818;stroke-width:0.5;"/><text fill="#000000" font-family="sans-serif" font-size="14" lengthAdjust="spacing" textLength="88.1289" x="5" y="417.7949">Organization</text><text fill="#000000" font-family="sans-serif" font-size="14" lengthAdjust="spacing" textLength="65.0303" x="16.5493" y="434.2832">Employee</text><ellipse cx="52.0645" cy="445.7363" fill="#E3E3E3" rx="8" ry="8" style="stroke:#181818;stroke-width:0.5;"/><path d="M52.0645,453.7363 L52.0645,480.7363 M39.0645,461.7363 L65.0645,461.7363 M52.0645,480.7363 L39.0645,495.7363 M52.0645,480.7363 L65.0645,495.7363 " fill="none" style="stroke:#181818;stroke-width:0.5;"/><rect fill="#E3E3E3" height="30.4883" rx="2.5" ry="2.5" style="stroke:#181818;stroke-width:0.5;" width="66.5273" x="385.1333" y="103.9766"/><text fill="#000000" font-family="sans-serif" font-size="14" lengthAdjust="spacing" textLength="52.5273" x="392.1333" y="124.5117">:System</text><rect fill="#E3E3E3" height="30.4883" rx="2.5" ry="2.5" style="stroke:#181818;stroke-width:0.5;" width="66.5273" x="385.1333" y="404.2598"/><text fill="#000000" font-family="sans-serif" font-size="14" lengthAdjust="spacing" textLength="52.5273" x="392.1333" y="424.7949">:System</text><rect fill="#FFFFFF" height="250.7949" style="stroke:#181818;stroke-width:1.0;" width="10" x="47.0645" y="145.4648"/><rect fill="#FFFFFF" height="29.3105" style="stroke:#181818;stroke-width:1.0;" width="10" x="413.397" y="166.7754"/><rect fill="#FFFFFF" height="44.6211" style="stroke:#181818;stroke-width:1.0;" width="10" x="413.397" y="225.3965"/><rect fill="#FFFFFF" height="29.3105" style="stroke:#181818;stroke-width:1.0;" width="10" x="413.397" y="299.3281"/><rect fill="#FFFFFF" height="29.3105" style="stroke:#181818;stroke-width:1.0;" width="10" x="413.397" y="357.9492"/><polygon fill="#181818" points="401.397,162.7754,411.397,166.7754,401.397,170.7754,405.397,166.7754" style="stroke:#181818;stroke-width:1.0;"/><line style="stroke:#181818;stroke-width:1.0;" x1="57.0645" x2="407.397" y1="166.7754" y2="166.7754"/><text fill="#000000" font-family="sans-serif" font-size="13" font-weight="bold" lengthAdjust="spacing" textLength="8.5757" x="64.0645" y="162.0332">1</text><text fill="#000000" font-family="sans-serif" font-size="13" lengthAdjust="spacing" textLength="158.7231" x="76.6401" y="162.0332">asks to create a new task</text><polygon fill="#181818" points="68.0645,192.0859,58.0645,196.0859,68.0645,200.0859,64.0645,196.0859" style="stroke:#181818;stroke-width:1.0;"/><line style="stroke:#181818;stroke-width:1.0;stroke-dasharray:2.0,2.0;" x1="62.0645" x2="417.397" y1="196.0859" y2="196.0859"/><text fill="#000000" font-family="sans-serif" font-size="13" font-weight="bold" lengthAdjust="spacing" textLength="8.5757" x="74.0645" y="191.3438">2</text><text fill="#000000" font-family="sans-serif" font-size="13" lengthAdjust="spacing" textLength="295.6421" x="86.6401" y="191.3438">shows task category list and asks to select one</text><polygon fill="#181818" points="401.397,221.3965,411.397,225.3965,401.397,229.3965,405.397,225.3965" style="stroke:#181818;stroke-width:1.0;"/><line style="stroke:#181818;stroke-width:1.0;" x1="57.0645" x2="407.397" y1="225.3965" y2="225.3965"/><text fill="#000000" font-family="sans-serif" font-size="13" font-weight="bold" lengthAdjust="spacing" textLength="8.5757" x="64.0645" y="220.6543">3</text><text fill="#000000" font-family="sans-serif" font-size="13" lengthAdjust="spacing" textLength="142.9492" x="76.6401" y="220.6543">selects a task category</text><polygon fill="#181818" points="68.0645,266.0176,58.0645,270.0176,68.0645,274.0176,64.0645,270.0176" style="stroke:#181818;stroke-width:1.0;"/><line style="stroke:#181818;stroke-width:1.0;stroke-dasharray:2.0,2.0;" x1="62.0645" x2="417.397" y1="270.0176" y2="270.0176"/><text fill="#000000" font-family="sans-serif" font-size="13" font-weight="bold" lengthAdjust="spacing" textLength="8.5757" x="74.0645" y="257.6201">4</text><text fill="#000000" font-family="sans-serif" font-size="13" lengthAdjust="spacing" textLength="319.7568" x="86.6401" y="249.9648">requests data (i.e. reference, designation, informal</text><text fill="#000000" font-family="sans-serif" font-size="13" lengthAdjust="spacing" textLength="310.1147" x="86.6401" y="265.2754">description, technical description, duration, cost)</text><polygon fill="#181818" points="401.397,295.3281,411.397,299.3281,401.397,303.3281,405.397,299.3281" style="stroke:#181818;stroke-width:1.0;"/><line style="stroke:#181818;stroke-width:1.0;" x1="57.0645" x2="407.397" y1="299.3281" y2="299.3281"/><text fill="#000000" font-family="sans-serif" font-size="13" font-weight="bold" lengthAdjust="spacing" textLength="8.5757" x="64.0645" y="294.5859">5</text><text fill="#000000" font-family="sans-serif" font-size="13" lengthAdjust="spacing" textLength="132.3042" x="76.6401" y="294.5859">types requested data</text><polygon fill="#181818" points="68.0645,324.6387,58.0645,328.6387,68.0645,332.6387,64.0645,328.6387" style="stroke:#181818;stroke-width:1.0;"/><line style="stroke:#181818;stroke-width:1.0;stroke-dasharray:2.0,2.0;" x1="62.0645" x2="417.397" y1="328.6387" y2="328.6387"/><text fill="#000000" font-family="sans-serif" font-size="13" font-weight="bold" lengthAdjust="spacing" textLength="8.5757" x="74.0645" y="323.8965">6</text><text fill="#000000" font-family="sans-serif" font-size="13" lengthAdjust="spacing" textLength="260.146" x="86.6401" y="323.8965">shows all data and requests confirmation</text><polygon fill="#181818" points="401.397,353.9492,411.397,357.9492,401.397,361.9492,405.397,357.9492" style="stroke:#181818;stroke-width:1.0;"/><line style="stroke:#181818;stroke-width:1.0;" x1="57.0645" x2="407.397" y1="357.9492" y2="357.9492"/><text fill="#000000" font-family="sans-serif" font-size="13" font-weight="bold" lengthAdjust="spacing" textLength="8.5757" x="64.0645" y="353.207">7</text><text fill="#000000" font-family="sans-serif" font-size="13" lengthAdjust="spacing" textLength="86.8486" x="76.6401" y="353.207">confirms data</text><polygon fill="#181818" points="68.0645,383.2598,58.0645,387.2598,68.0645,391.2598,64.0645,387.2598" style="stroke:#181818;stroke-width:1.0;"/><line style="stroke:#181818;stroke-width:1.0;stroke-dasharray:2.0,2.0;" x1="62.0645" x2="417.397" y1="387.2598" y2="387.2598"/><text fill="#000000" font-family="sans-serif" font-size="13" font-weight="bold" lengthAdjust="spacing" textLength="8.5757" x="74.0645" y="382.5176">8</text><text fill="#000000" font-family="sans-serif" font-size="13" lengthAdjust="spacing" textLength="168.4224" x="86.6401" y="382.5176">displays operation success</text><!--SRC=[dP6nSi8m38RtF8ME2Uw01s3eHESEMLbKHmaw7Dcrb7BfqzT9I5hkMC2JBUl_zKdI2ql4X2sqGO8xfz0IMEgeqEKdehjWGwNrdY2HCvJ6_q_GCrRXoj90ZLwfA8mjfvQz6hLGqbT7uWYEZCsGlYxBuwOeiBCWNVj9AT-TXGIhZzIWy0yQ1pd9Unjzw8bMW0hpeyWbZHr758FLOQenPapNqOk_qUXFKa0-ymjsRpFP8Sik2XR09HeK249Ni1mT9OlJR0stSzFlijLYUyXZ25STrU2ogWcf1yzgW58jbPHydY04eT6jeeT57i9EKisKTpLUGKt3JZHxLMW8QzxJFiTgIiEYjfbAkP5n3LjWgKDgqPyaXrtYE8MDt5dOeOUxSDMbcyu5jStJJLeVIMS-gaR0rvU1tayj3YjOcdP1Qiuj3PnF0zx4-Z9PnHezzWeXqZGhqCuvKdtCyWi0]--></g></svg>