<svg xmlns="http://www.w3.org/2000/svg" xmlns:xlink="http://www.w3.org/1999/xlink" contentStyleType="text/css" height="476px" preserveAspectRatio="none" style="width:482px;height:476px;background:#FFFFFF;" version="1.1" viewBox="0 0 482 476" width="482px" zoomAndPan="magnify"><title>System Sequence Diagram (SSD)</title><defs/><g><text fill="#000000" font-family="sans-serif" font-size="14" font-weight="bold" lengthAdjust="spacing" textLength="221.7441" x="129.3875" y="30.1074">System Sequence Diagram (SSD)</text><rect fill="#FFFFFF" height="251.3281" style="stroke:#181818;stroke-width:1.0;" width="10" x="49.3032" y="133.2422"/><rect fill="#FFFFFF" height="31.291" style="stroke:#181818;stroke-width:1.0;" width="10" x="439.2363" y="156.5332"/><rect fill="#FFFFFF" height="31.291" style="stroke:#181818;stroke-width:1.0;" width="10" x="439.2363" y="219.1152"/><rect fill="#FFFFFF" height="31.291" style="stroke:#181818;stroke-width:1.0;" width="10" x="439.2363" y="281.6973"/><rect fill="#FFFFFF" height="31.291" style="stroke:#181818;stroke-width:1.0;" width="10" x="439.2363" y="344.2793"/><line style="stroke:#181818;stroke-width:0.5;stroke-dasharray:5.0,5.0;" x1="54" x2="54" y1="123.2422" y2="393.5703"/><line style="stroke:#181818;stroke-width:0.5;stroke-dasharray:5.0,5.0;" x1="443.9536" x2="443.9536" y1="123.2422" y2="393.5703"/><text fill="#000000" font-family="sans-serif" font-size="14" lengthAdjust="spacing" textLength="92.6064" x="5" y="119.7285">Store Manager</text><ellipse cx="54.3032" cy="53.1211" fill="#E3E3E3" rx="8" ry="8" style="stroke:#181818;stroke-width:0.5;"/><path d="M54.3032,61.1211 L54.3032,88.1211 M41.3032,69.1211 L67.3032,69.1211 M54.3032,88.1211 L41.3032,103.1211 M54.3032,88.1211 L67.3032,103.1211 " fill="none" style="stroke:#181818;stroke-width:0.5;"/><text fill="#000000" font-family="sans-serif" font-size="14" lengthAdjust="spacing" textLength="92.6064" x="5" y="407.6777">Store Manager</text><ellipse cx="54.3032" cy="419.6914" fill="#E3E3E3" rx="8" ry="8" style="stroke:#181818;stroke-width:0.5;"/><path d="M54.3032,427.6914 L54.3032,454.6914 M41.3032,435.6914 L67.3032,435.6914 M54.3032,454.6914 L41.3032,469.6914 M54.3032,454.6914 L67.3032,469.6914 " fill="none" style="stroke:#181818;stroke-width:0.5;"/><rect fill="#E3E3E3" height="32.6211" rx="2.5" ry="2.5" style="stroke:#181818;stroke-width:0.5;" width="64.5654" x="411.9536" y="89.6211"/><text fill="#000000" font-family="sans-serif" font-size="14" lengthAdjust="spacing" textLength="50.5654" x="418.9536" y="111.7285">:System</text><rect fill="#E3E3E3" height="32.6211" rx="2.5" ry="2.5" style="stroke:#181818;stroke-width:0.5;" width="64.5654" x="411.9536" y="392.5703"/><text fill="#000000" font-family="sans-serif" font-size="14" lengthAdjust="spacing" textLength="50.5654" x="418.9536" y="414.6777">:System</text><rect fill="#FFFFFF" height="251.3281" style="stroke:#181818;stroke-width:1.0;" width="10" x="49.3032" y="133.2422"/><rect fill="#FFFFFF" height="31.291" style="stroke:#181818;stroke-width:1.0;" width="10" x="439.2363" y="156.5332"/><rect fill="#FFFFFF" height="31.291" style="stroke:#181818;stroke-width:1.0;" width="10" x="439.2363" y="219.1152"/><rect fill="#FFFFFF" height="31.291" style="stroke:#181818;stroke-width:1.0;" width="10" x="439.2363" y="281.6973"/><rect fill="#FFFFFF" height="31.291" style="stroke:#181818;stroke-width:1.0;" width="10" x="439.2363" y="344.2793"/><polygon fill="#181818" points="427.2363,152.5332,437.2363,156.5332,427.2363,160.5332,431.2363,156.5332" style="stroke:#181818;stroke-width:1.0;"/><line style="stroke:#181818;stroke-width:1.0;" x1="59.3032" x2="433.2363" y1="156.5332" y2="156.5332"/><text fill="#000000" font-family="sans-serif" font-size="13" font-weight="bold" lengthAdjust="spacing" textLength="7.23" x="66.3032" y="151.2705">1</text><text fill="#000000" font-family="sans-serif" font-size="13" lengthAdjust="spacing" textLength="155.3716" x="77.5332" y="151.2705">asks to create a new agent</text><polygon fill="#181818" points="70.3032,183.8242,60.3032,187.8242,70.3032,191.8242,66.3032,187.8242" style="stroke:#181818;stroke-width:1.0;"/><line style="stroke:#181818;stroke-width:1.0;stroke-dasharray:2.0,2.0;" x1="64.3032" x2="443.2363" y1="187.8242" y2="187.8242"/><text fill="#000000" font-family="sans-serif" font-size="13" font-weight="bold" lengthAdjust="spacing" textLength="7.23" x="76.3032" y="182.5615">2</text><text fill="#000000" font-family="sans-serif" font-size="13" lengthAdjust="spacing" textLength="279.6777" x="87.5332" y="182.5615">shows available stores agent can be assigned to</text><polygon fill="#181818" points="427.2363,215.1152,437.2363,219.1152,427.2363,223.1152,431.2363,219.1152" style="stroke:#181818;stroke-width:1.0;"/><line style="stroke:#181818;stroke-width:1.0;" x1="59.3032" x2="433.2363" y1="219.1152" y2="219.1152"/><text fill="#000000" font-family="sans-serif" font-size="13" font-weight="bold" lengthAdjust="spacing" textLength="7.23" x="66.3032" y="213.8525">3</text><text fill="#000000" font-family="sans-serif" font-size="13" lengthAdjust="spacing" textLength="83.8145" x="77.5332" y="213.8525">selects a store</text><polygon fill="#181818" points="70.3032,246.4063,60.3032,250.4063,70.3032,254.4063,66.3032,250.4063" style="stroke:#181818;stroke-width:1.0;"/><line style="stroke:#181818;stroke-width:1.0;stroke-dasharray:2.0,2.0;" x1="64.3032" x2="443.2363" y1="250.4063" y2="250.4063"/><text fill="#000000" font-family="sans-serif" font-size="13" font-weight="bold" lengthAdjust="spacing" textLength="7.23" x="76.3032" y="245.1436">4</text><text fill="#000000" font-family="sans-serif" font-size="13" lengthAdjust="spacing" textLength="139.4644" x="87.5332" y="245.1436">requests Agent data (...)</text><polygon fill="#181818" points="427.2363,277.6973,437.2363,281.6973,427.2363,285.6973,431.2363,281.6973" style="stroke:#181818;stroke-width:1.0;"/><line style="stroke:#181818;stroke-width:1.0;" x1="59.3032" x2="433.2363" y1="281.6973" y2="281.6973"/><text fill="#000000" font-family="sans-serif" font-size="13" font-weight="bold" lengthAdjust="spacing" textLength="7.23" x="66.3032" y="276.4346">5</text><text fill="#000000" font-family="sans-serif" font-size="13" lengthAdjust="spacing" textLength="121.418" x="77.5332" y="276.4346">types requested data</text><polygon fill="#181818" points="70.3032,308.9883,60.3032,312.9883,70.3032,316.9883,66.3032,312.9883" style="stroke:#181818;stroke-width:1.0;"/><line style="stroke:#181818;stroke-width:1.0;stroke-dasharray:2.0,2.0;" x1="64.3032" x2="443.2363" y1="312.9883" y2="312.9883"/><text fill="#000000" font-family="sans-serif" font-size="13" font-weight="bold" lengthAdjust="spacing" textLength="7.23" x="76.3032" y="307.7256">6</text><text fill="#000000" font-family="sans-serif" font-size="13" lengthAdjust="spacing" textLength="344.7031" x="87.5332" y="307.7256">creates Agent and shows all data and requests confirmation</text><polygon fill="#181818" points="427.2363,340.2793,437.2363,344.2793,427.2363,348.2793,431.2363,344.2793" style="stroke:#181818;stroke-width:1.0;"/><line style="stroke:#181818;stroke-width:1.0;" x1="59.3032" x2="433.2363" y1="344.2793" y2="344.2793"/><text fill="#000000" font-family="sans-serif" font-size="13" font-weight="bold" lengthAdjust="spacing" textLength="7.23" x="66.3032" y="339.0166">7</text><text fill="#000000" font-family="sans-serif" font-size="13" lengthAdjust="spacing" textLength="78.0317" x="77.5332" y="339.0166">confirms data</text><polygon fill="#181818" points="70.3032,371.5703,60.3032,375.5703,70.3032,379.5703,66.3032,375.5703" style="stroke:#181818;stroke-width:1.0;"/><line style="stroke:#181818;stroke-width:1.0;stroke-dasharray:2.0,2.0;" x1="64.3032" x2="443.2363" y1="375.5703" y2="375.5703"/><text fill="#000000" font-family="sans-serif" font-size="13" font-weight="bold" lengthAdjust="spacing" textLength="7.23" x="76.3032" y="370.3076">8</text><text fill="#000000" font-family="sans-serif" font-size="13" lengthAdjust="spacing" textLength="155.3589" x="87.5332" y="370.3076">displays operation success</text><!--SRC=[dP0zRiCm34PtdOB8b0p90J8KA92EdNm2HcOS8JBbYdG2tpxqRpkuGwB1a6r-Zu-KM-06CzPG9qx-cbDDeBab9ykV1lqDAogqYmIPl29NyM-1NB5CZy0LN30AEQT1hRJeHAc6WdvQOazm2bZrvTkYEEsSmrOJj_MPijszfWoRmfu4tyZMBcy01Rxg9gQEo5ad3Juqo0gRuuWUAiRhW0XtLFgDEB0ply7-OnOwMkmce0byfZw1mFG0wyawP1RKp8RfJ82ziHRkqSPF3m6yOuXujhcbdq967dXaE5iBaL0nbTPre9MqscJLLYZQqWqualzNNDVB_Vx5yf-3K8cAi3qS3hkNHRHhRAw9PxFqg7SMDgvz5a8kvnN6EEhrdnPjd_WISeqQ4h-iF8NbRTSoI1En4qWDvS41fFMUHDPTdW00]--></g></svg>