<svg xmlns="http://www.w3.org/2000/svg" xmlns:xlink="http://www.w3.org/1999/xlink" contentStyleType="text/css" height="1115px" preserveAspectRatio="none" style="width:564px;height:1115px;background:#FFFFFF;" version="1.1" viewBox="0 0 564 1115" width="564px" zoomAndPan="magnify"><defs/><g><!--cluster actors--><g id="cluster_actors"><rect fill="none" height="475" rx="2.5" ry="2.5" style="stroke:#FFFF00;stroke-width:1.0;" width="146" x="7" y="277"/><text fill="#000000" font-family="sans-serif" font-size="14" font-weight="bold" lengthAdjust="spacing" textLength="98.041" x="30.9795" y="294.1074">System Actors</text></g><!--cluster usecases--><g id="cluster_usecases"><rect fill="none" height="1102" rx="2.5" ry="2.5" style="stroke:#FFFF00;stroke-width:1.0;" width="377" x="181" y="7"/><text fill="#000000" font-family="sans-serif" font-size="14" font-weight="bold" lengthAdjust="spacing" textLength="70.8271" x="334.0864" y="24.1074">Use Cases</text></g><!--entity Network_Manager--><g id="elem_Network_Manager"><ellipse cx="80.1929" cy="323" fill="#F1F1F1" rx="8" ry="8" style="stroke:#181818;stroke-width:0.5;"/><path d="M80.1929,331 L80.1929,358 M67.1929,339 L93.1929,339 M80.1929,358 L67.1929,373 M80.1929,358 L93.1929,373 " fill="none" style="stroke:#181818;stroke-width:0.5;"/><text fill="#000000" font-family="sans-serif" font-size="14" lengthAdjust="spacing" textLength="114.3857" x="23" y="389.6074">Network_Manager</text></g><!--entity UnregisteredUser--><g id="elem_UnregisteredUser"><ellipse cx="79.855" cy="437" fill="#F1F1F1" rx="8" ry="8" style="stroke:#181818;stroke-width:0.5;"/><path d="M79.855,445 L79.855,472 M66.855,453 L92.855,453 M79.855,472 L66.855,487 M79.855,472 L92.855,487 " fill="none" style="stroke:#181818;stroke-width:0.5;"/><text fill="#000000" font-family="sans-serif" font-size="14" lengthAdjust="spacing" textLength="109.71" x="25" y="503.6074">UnregisteredUser</text></g><!--entity Client--><g id="elem_Client"><ellipse cx="79.8965" cy="551" fill="#F1F1F1" rx="8" ry="8" style="stroke:#181818;stroke-width:0.5;"/><path d="M79.8965,559 L79.8965,586 M66.8965,567 L92.8965,567 M79.8965,586 L66.8965,601 M79.8965,586 L92.8965,601 " fill="none" style="stroke:#181818;stroke-width:0.5;"/><text fill="#000000" font-family="sans-serif" font-size="14" lengthAdjust="spacing" textLength="35.793" x="62" y="617.6074">Client</text></g><!--entity Agent--><g id="elem_Agent"><ellipse cx="79.793" cy="665" fill="#F1F1F1" rx="8" ry="8" style="stroke:#181818;stroke-width:0.5;"/><path d="M79.793,673 L79.793,700 M66.793,681 L92.793,681 M79.793,700 L66.793,715 M79.793,700 L92.793,715 " fill="none" style="stroke:#181818;stroke-width:0.5;"/><text fill="#000000" font-family="sans-serif" font-size="14" lengthAdjust="spacing" textLength="36.5859" x="61.5" y="731.6074">Agent</text></g><g id="elem_US10"><ellipse cx="369.3971" cy="67.9794" fill="#F1F1F1" rx="105.3971" ry="23.4794" style="stroke:#181818;stroke-width:0.5;"/><text fill="#000000" font-family="sans-serif" font-size="14" lengthAdjust="spacing" textLength="170.4063" x="284.194" y="71.7763">US10 - Register new Store.</text></g><g id="elem_US11"><ellipse cx="369.3389" cy="151.1678" fill="#F1F1F1" rx="111.3389" ry="24.6678" style="stroke:#181818;stroke-width:0.5;"/><text fill="#000000" font-family="sans-serif" font-size="14" lengthAdjust="spacing" textLength="183.6543" x="277.5117" y="154.9646">US11 - Register a new agent.</text></g><g id="elem_US12"><ellipse cx="369.2805" cy="231.7561" fill="#F1F1F1" rx="91.7805" ry="20.7561" style="stroke:#181818;stroke-width:0.5;"/><text fill="#000000" font-family="sans-serif" font-size="14" lengthAdjust="spacing" textLength="138.5098" x="297.0256" y="236.5598">US12 - List all Agents.</text></g><g id="elem_US13"><ellipse cx="369.5174" cy="311.2035" fill="#F1F1F1" rx="104.0174" ry="23.2035" style="stroke:#181818;stroke-width:0.5;"/><text fill="#000000" font-family="sans-serif" font-size="14" lengthAdjust="spacing" textLength="167.3027" x="285.8661" y="315.0004">US13 - List all deals Made.</text></g><g id="elem_US20"><ellipse cx="369.71" cy="396.942" fill="#F1F1F1" rx="125.21" ry="27.442" style="stroke:#181818;stroke-width:0.5;"/><text fill="#000000" font-family="sans-serif" font-size="14" lengthAdjust="spacing" textLength="213.9922" x="262.7139" y="400.7389">US20 - List all Available properties</text></g><g id="elem_US21"><ellipse cx="369.4202" cy="481.984" fill="#F1F1F1" rx="97.9202" ry="21.984" style="stroke:#181818;stroke-width:0.5;"/><text fill="#000000" font-family="sans-serif" font-size="14" lengthAdjust="spacing" textLength="153.2891" x="291.0362" y="486.3985">US21 - Regist new client</text></g><g id="elem_US30"><ellipse cx="369.3466" cy="566.8693" fill="#F1F1F1" rx="124.8466" ry="27.3693" style="stroke:#181818;stroke-width:0.5;"/><text fill="#000000" font-family="sans-serif" font-size="14" lengthAdjust="spacing" textLength="213.2061" x="262.7436" y="570.6662">US30 - List properties for sale/rent</text></g><g id="elem_US31"><ellipse cx="369.718" cy="654.9436" fill="#F1F1F1" rx="115.218" ry="25.4436" style="stroke:#181818;stroke-width:0.5;"/><text fill="#000000" font-family="sans-serif" font-size="14" lengthAdjust="spacing" textLength="192.2129" x="273.6116" y="658.7405">US31 - Request a visit booking</text></g><g id="elem_US32"><ellipse cx="369.709" cy="752.9418" fill="#F1F1F1" rx="172.709" ry="36.9418" style="stroke:#181818;stroke-width:0.5;"/><text fill="#000000" font-family="sans-serif" font-size="14" lengthAdjust="spacing" textLength="314.3984" x="212.5098" y="756.7387">US32 -  place an order to property purchase/lease.</text></g><g id="elem_US40"><ellipse cx="369.2838" cy="857.7568" fill="#F1F1F1" rx="149.2838" ry="32.2568" style="stroke:#181818;stroke-width:0.5;"/><text fill="#000000" font-family="sans-serif" font-size="14" lengthAdjust="spacing" textLength="265.3574" x="236.6051" y="861.5536">US40 - publish a sale or rent advertisemen</text></g><g id="elem_US41"><ellipse cx="369.5378" cy="955.9076" fill="#F1F1F1" rx="137.5378" ry="29.9076" style="stroke:#181818;stroke-width:0.5;"/><text fill="#000000" font-family="sans-serif" font-size="14" lengthAdjust="spacing" textLength="240.4541" x="249.3108" y="959.7044">US41 - reply to a visit booking request.</text></g><g id="elem_US42"><ellipse cx="369.472" cy="1057.1944" fill="#F1F1F1" rx="168.972" ry="36.1944" style="stroke:#181818;stroke-width:0.5;"/><text fill="#000000" font-family="sans-serif" font-size="14" lengthAdjust="spacing" textLength="306.6191" x="216.1624" y="1060.9913">US42 - evaluate a property purchase/lease order.</text></g><!--link Network_Manager to US10--><g id="link_Network_Manager_US10"><path d="M84.32,314.29 C91.12,259.54 111.62,161.66 173,109 C198.27,87.32 226.1549,77.1359 258.5549,71.6259 " fill="none" id="Network_Manager-to-US10" style="stroke:#181818;stroke-width:1.0;"/><polygon fill="#181818" points="264.47,70.62,254.9268,68.1855,259.5408,71.4583,256.268,76.0723,264.47,70.62" style="stroke:#181818;stroke-width:1.0;"/></g><!--link Network_Manager to US11--><g id="link_Network_Manager_US11"><path d="M93.08,314.49 C106.53,277.32 131.95,223.03 173,193 C198.64,174.24 225.0307,164.677 255.9407,158.657 " fill="none" id="Network_Manager-to-US11" style="stroke:#181818;stroke-width:1.0;"/><polygon fill="#181818" points="261.83,157.51,252.2313,155.3043,256.9222,158.4658,253.7607,163.1567,261.83,157.51" style="stroke:#181818;stroke-width:1.0;"/></g><!--link Network_Manager to US12--><g id="link_Network_Manager_US12"><path d="M115.04,314.5 C131.04,298.32 151.36,280.88 173,270 C206.52,253.14 240.8051,244.6313 276.0251,239.4013 " fill="none" id="Network_Manager-to-US12" style="stroke:#181818;stroke-width:1.0;"/><polygon fill="#181818" points="281.96,238.52,272.4701,235.8853,277.0142,239.2544,273.6452,243.7986,281.96,238.52" style="stroke:#181818;stroke-width:1.0;"/></g><!--link Network_Manager to US13--><g id="link_Network_Manager_US13"><path d="M137.12,345.61 C178.54,339.41 229.736,331.7578 276.856,324.7078 " fill="none" id="Network_Manager-to-US13" style="stroke:#181818;stroke-width:1.0;"/><polygon fill="#181818" points="282.79,323.82,273.2972,321.1958,277.845,324.5599,274.481,329.1077,282.79,323.82" style="stroke:#181818;stroke-width:1.0;"/></g><!--link UnregisteredUser to US20--><g id="link_UnregisteredUser_US20"><path d="M135.37,452.16 C147.71,448.69 160.78,445.13 173,442 C207.92,433.05 240.7082,425.3055 274.3482,417.6855 " fill="none" id="UnregisteredUser-to-US20" style="stroke:#181818;stroke-width:1.0;"/><polygon fill="#181818" points="280.2,416.36,270.5387,414.4471,275.3235,417.4646,272.306,422.2494,280.2,416.36" style="stroke:#181818;stroke-width:1.0;"/></g><!--link UnregisteredUser to US21--><g id="link_UnregisteredUser_US21"><path d="M135.08,470.63 C174.03,472.53 221.6271,474.8482 267.6371,477.0882 " fill="none" id="UnregisteredUser-to-US21" style="stroke:#181818;stroke-width:1.0;"/><polygon fill="#181818" points="273.63,477.38,264.8352,472.9471,268.6359,477.1369,264.4461,480.9376,273.63,477.38" style="stroke:#181818;stroke-width:1.0;"/></g><!--link Client to US30--><g id="link_Client_US30"><path d="M98.12,581.11 C127.56,579.57 184.1582,576.6234 241.7082,573.6134 " fill="none" id="Client-to-US30" style="stroke:#181818;stroke-width:1.0;"/><polygon fill="#181818" points="247.7,573.3,238.5034,569.7755,242.7068,573.5612,238.9212,577.7646,247.7,573.3" style="stroke:#181818;stroke-width:1.0;"/></g><!--link Client to US31--><g id="link_Client_US31"><path d="M98.14,588.15 C116.51,594.61 146.58,604.81 173,612 C208.71,621.72 242.6704,629.556 277.0204,636.836 " fill="none" id="Client-to-US31" style="stroke:#181818;stroke-width:1.0;"/><polygon fill="#181818" points="282.89,638.08,274.9149,632.3009,277.9986,637.0433,273.2562,640.1271,282.89,638.08" style="stroke:#181818;stroke-width:1.0;"/></g><!--link Client to US32--><g id="link_Client_US32"><path d="M98.33,589.54 C116.87,598.55 145.67,615.4 161,639 C175.58,661.44 154.79,678.4 173,698 C187.28,713.37 199.9408,722.2641 219.4708,730.3941 " fill="none" id="Client-to-US32" style="stroke:#181818;stroke-width:1.0;"/><polygon fill="#181818" points="225.01,732.7,218.2384,725.5484,220.394,730.7784,215.1639,732.934,225.01,732.7" style="stroke:#181818;stroke-width:1.0;"/></g><!--link Agent to US40--><g id="link_Agent_US40"><path d="M98.65,726.46 C114.84,751.73 141.12,786.7 173,807 C195.49,821.32 216.081,829.9811 242.041,837.4011 " fill="none" id="Agent-to-US40" style="stroke:#181818;stroke-width:1.0;"/><polygon fill="#181818" points="247.81,839.05,240.2558,832.7306,243.0025,837.6759,238.0573,840.4226,247.81,839.05" style="stroke:#181818;stroke-width:1.0;"/></g><!--link Agent to US41--><g id="link_Agent_US41"><path d="M87.27,735.54 C97,783.56 120.42,863.62 173,908 C193.23,925.08 212.8366,934.6168 238.5366,941.8868 " fill="none" id="Agent-to-US41" style="stroke:#181818;stroke-width:1.0;"/><polygon fill="#181818" points="244.31,943.52,236.7386,937.2213,239.4988,942.159,234.561,944.9192,244.31,943.52" style="stroke:#181818;stroke-width:1.0;"/></g><!--link Agent to US42--><g id="link_Agent_US42"><path d="M81.26,735.55 C83.9,800.66 98.83,930.42 173,1003 C188.48,1018.15 202.2084,1026.9541 222.6384,1034.9041 " fill="none" id="Agent-to-US42" style="stroke:#181818;stroke-width:1.0;"/><polygon fill="#181818" points="228.23,1037.08,221.2932,1030.0885,223.5704,1035.2668,218.3921,1037.5439,228.23,1037.08" style="stroke:#181818;stroke-width:1.0;"/></g><!--SRC=[VPDFSvim4CNlV8gTN7no4_wSEvEwlJKzr9DpPmrhq5X8L19scKw-UrS20x5ISs0GA_tslITfOqz2TMYmXLOhNJP6jmJEz9GibGxB4zQqTuCaC5GwLBMaPBFCi0rM-Y9K3KUKbfBLudd-tmJu-Q9DHMQdfJOma9JwahmboSO9n-nNIx13VdqLMFl5t_vWst6hHDBHWTDWHDqug8Id2gsIPCR3mtwmZbfuBfqszW7G0ePF63k70VmWTz7czEi55LiogyghCbGBHXYgMCYwj9E2b5lzUAxz-ErT-wluiNLlgVI3iVSquadxz0csy7Fg18eki6SYVGghV3aik949s-tdfRYcfMiQ1XvwSJCllSTB8rx6lEzC0vHoj6bdL7OFbKMeV8sgY0y6l62rECtluV9RNFRqJjaPXSG3vzuPtP5nOihTJmnBRxTp0cTHXDaIOOYl39jzXQLtOL5- -QnoqGL7FZ4M9JsQ1PoFEiQJDU7oI5i-QllTa_SDPs65WuFMVBlgAoZz01JhyliAdSII01M4I-ZlqwHoWAutPSEJ7oNn-xf7UVO1FDhfmflk-eCKjc6LtYft0EyMi3hx52orf2PeCTeCXsjY5f7pmZitrCd1oxonpeKGoLLcaSR4A8B2Hq1db3qw3k5_riTiPd8MapE- -Fy0]--></g></svg>